<svg xmlns="http://www.w3.org/2000/svg" width="512" height="512" viewBox="0 0 1024 1024">
<rect width="1024" height="1024" fill="#fff"/>
<path d="M512 178C684 178 824 307 824 474C824 633 699 755 548 769L548 823C548 843 532 859 512 859C492 859 476 843 476 823L476 769C325 755 200 633 200 474C200 307 340 178 512 178Z" fill="#FF4D76"/>
<path d="M405 553C434 585 470 601 512 601C554 601 590 585 619 553" fill="none" stroke="#FFFFFF" stroke-width="28" stroke-linecap="round" stroke-opacity="0.94"/>
</svg>
